# xmcd CD database file
# Copyright (C) 1995-1998 Ti Kan
#
# Track frame offsets:
#	183
#	16933
#	35458
#	52458
#	73933
#	88083
#	105183
#	126708
#	145383
#	177283
#	200133
#	223533
#	244758
#	258183
#	270808
#	280458
#	294733
#	309933
#	319708
#	330733
#
# Disc length: 4537 seconds
#
# Revision: 2
# Processed by: cddbd v1.4b41PL1 Copyright (c) Steve Scherf et al.
# Submitted via: CDex 1.30Release
#
DISCID=3a11b714
DTITLE=Howlin' Wolf - The Gold Collection
DYEAR=1900
DGENRE=Blues
TTITLE0=Shake It For Me
TTITLE1=Love Me
TTITLE2=Dust My Broom
TTITLE3=I Didn't Mean To Hurt Your Feelings
TTITLE4=Rockin' The Blues
TTITLE5=All My Life
TTITLE6=Goin' Down Slow
TTITLE7=Howlin' For My Darlin'
TTITLE8=Fourty Four
TTITLE9=Little Red Rooster
TTITLE10=Evil
TTITLE11=Blind Love
TTITLE12=My Baby Walked Off
TTITLE13=Bluebird
TTITLE14=Look-A-Here Baby
TTITLE15=Decoration Day
TTITLE16=Sweet Woman
TTITLE17=Come Back Home
TTITLE18=Highway Man
TTITLE19=Smile At Me
EXTD=ID3G:   0
EXTT0=
EXTT1=
EXTT2=
EXTT3=
EXTT4=
EXTT5=
EXTT6=
EXTT7=
EXTT8=
EXTT9=
EXTT10=
EXTT11=
EXTT12=
EXTT13=
EXTT14=
EXTT15=
EXTT16=
EXTT17=
EXTT18=
EXTT19=
PLAYORDER=
